<svg width="578" height="105" viewBox="0 0 578 105" fill="none" xmlns="http://www.w3.org/2000/svg">
<path d="M18.7653 19.46V83H5.67322V19.46H18.7653ZM44.0765 46.6041V56.8159H15.1868V46.6041H44.0765ZM47.1313 19.46V29.7154H15.1868V19.46H47.1313ZM68.6459 19.46V83H55.5975V19.46H68.6459ZM113.988 66.3731C113.988 65.2385 113.813 64.2202 113.464 63.3183C113.144 62.3873 112.533 61.5436 111.631 60.7872C110.73 60.0016 109.464 59.2307 107.835 58.4742C106.206 57.7178 104.096 56.9323 101.507 56.1177C98.6267 55.1867 95.8919 54.1393 93.3026 52.9756C90.7424 51.8118 88.4731 50.459 86.4948 48.9171C84.5455 47.346 83.0035 45.5277 81.8689 43.462C80.7633 41.3964 80.2106 38.9962 80.2106 36.2614C80.2106 33.6139 80.7924 31.2137 81.9562 29.0608C83.1199 26.8788 84.7491 25.0168 86.8439 23.4749C88.9386 21.9038 91.4115 20.6964 94.2627 19.8527C97.1429 19.009 100.3 18.5872 103.733 18.5872C108.417 18.5872 112.504 19.4309 115.995 21.1183C119.487 22.8057 122.192 25.1186 124.113 28.0571C126.062 30.9955 127.036 34.3558 127.036 38.1379H114.032C114.032 36.276 113.639 34.6467 112.853 33.2502C112.097 31.8247 110.933 30.7046 109.362 29.89C107.82 29.0753 105.871 28.668 103.514 28.668C101.245 28.668 99.354 29.0172 97.8412 29.7154C96.3283 30.3845 95.1937 31.301 94.4373 32.4647C93.6808 33.5994 93.3026 34.8795 93.3026 36.3051C93.3026 37.3815 93.5645 38.3561 94.0881 39.2289C94.6409 40.1017 95.4555 40.9164 96.532 41.6728C97.6084 42.4292 98.9322 43.142 100.503 43.8112C102.074 44.4803 103.893 45.1349 105.958 45.775C109.42 46.8223 112.461 48.0006 115.079 49.3098C117.727 50.619 119.938 52.0882 121.712 53.7175C123.487 55.3467 124.825 57.1941 125.727 59.2598C126.629 61.3254 127.08 63.6674 127.08 66.2858C127.08 69.0497 126.542 71.5226 125.465 73.7047C124.389 75.8867 122.832 77.7341 120.796 79.2469C118.759 80.7598 116.33 81.909 113.508 82.6945C110.686 83.48 107.529 83.8728 104.038 83.8728C100.896 83.8728 97.7975 83.4655 94.7427 82.6509C91.6879 81.8072 88.9095 80.5416 86.4075 78.8542C83.9345 77.1668 81.9562 75.0139 80.4724 72.3954C78.9886 69.777 78.2468 66.6786 78.2468 63.1001H91.3824C91.3824 65.0785 91.6879 66.7513 92.2989 68.1187C92.9099 69.4861 93.7681 70.5917 94.8737 71.4354C96.0083 72.2791 97.3466 72.89 98.8885 73.2682C100.46 73.6465 102.176 73.8356 104.038 73.8356C106.307 73.8356 108.169 73.5155 109.624 72.8755C111.108 72.2354 112.199 71.3481 112.897 70.2134C113.624 69.0788 113.988 67.7987 113.988 66.3731ZM178.357 45.3386V55.5504H145.191V45.3386H178.357ZM149.075 19.46V83H135.983V19.46H149.075ZM187.696 19.46V83H174.648V19.46H187.696Z" fill="white"/>
<path d="M198.199 61.4418H182.401V49.6153H198.199C200.352 49.6153 202.097 49.2516 203.436 48.5243C204.774 47.797 205.749 46.7932 206.36 45.5131C207 44.2039 207.32 42.7347 207.32 41.1055C207.32 39.3599 207 37.7452 206.36 36.2614C205.749 34.7776 204.774 33.5848 203.436 32.6829C202.097 31.7519 200.352 31.2864 198.199 31.2864H188.162V83H172.844V19.46H198.199C203.29 19.46 207.669 20.391 211.335 22.2529C215.03 24.1149 217.866 26.6751 219.844 29.9336C221.823 33.163 222.812 36.8578 222.812 41.0182C222.812 45.1204 221.823 48.6989 219.844 51.7537C217.866 54.8085 215.03 57.1941 211.335 58.9106C207.669 60.5981 203.29 61.4418 198.199 61.4418ZM247.338 19.46V83H232.064V19.46H247.338ZM305.685 71.2172V83H259.688V71.2172H305.685ZM305.379 27.3152L267.281 83H256.197V74.9266L294.731 19.46H305.379V27.3152ZM300.448 19.46V31.2864H255.979V19.46H300.448ZM360.235 71.2172V83H314.238V71.2172H360.235ZM359.929 27.3152L321.831 83H310.747V74.9266L349.281 19.46H359.929V27.3152ZM354.998 19.46V31.2864H310.529V19.46H354.998ZM394.754 32.8138L379.262 83H362.81L386.157 19.46H396.587L394.754 32.8138ZM407.584 83L392.048 32.8138L390.041 19.46H400.602L424.08 83H407.584ZM406.973 59.3034V71.1299H374.374V59.3034H406.973ZM428.75 19.46H453.756C458.643 19.46 462.891 20.1873 466.499 21.642C470.106 23.0966 472.885 25.2496 474.834 28.1007C476.812 30.9519 477.801 34.4722 477.801 38.6616C477.801 42.2983 477.234 45.3386 476.099 47.7824C474.965 50.2263 473.379 52.2483 471.343 53.8484C469.335 55.4194 466.993 56.7141 464.317 57.7324L459.298 60.569H438.307L438.22 48.7425H453.756C455.705 48.7425 457.32 48.3934 458.6 47.6951C459.88 46.9969 460.84 46.0077 461.48 44.7276C462.149 43.4184 462.484 41.8619 462.484 40.0581C462.484 38.2252 462.149 36.6542 461.48 35.345C460.811 34.0358 459.822 33.032 458.512 32.3338C457.232 31.6356 455.647 31.2864 453.756 31.2864H444.068V83H428.75V19.46ZM463.531 83L449.479 54.8958L465.713 54.8085L479.94 82.3454V83H463.531ZM503.331 19.46V83H488.057V19.46H503.331ZM541.821 32.8138L526.329 83H509.877L533.224 19.46H543.654L541.821 32.8138ZM554.652 83L539.116 32.8138L537.108 19.46H547.669L571.148 83H554.652ZM554.041 59.3034V71.1299H521.441V59.3034H554.041Z" fill="#FF0000"/>
</svg>
